<mxfile host="app.diagrams.net" agent="Mozilla/5.0 (X11; Linux x86_64; rv:143.0) Gecko/20100101 Firefox/143.0" version="28.2.7">
  <diagram name="Страница — 1" id="cka1hHKxKbjvaWri14X5">
    <mxGraphModel dx="1426" dy="757" grid="1" gridSize="10" guides="1" tooltips="1" connect="1" arrows="1" fold="1" page="1" pageScale="1" pageWidth="1654" pageHeight="2336" background="none" math="0" shadow="0">
      <root>
        <mxCell id="0" />
        <mxCell id="1" parent="0" />
        <mxCell id="4fH8sYnN1hW22ZoU_4J2-1" value="Plane" style="swimlane;fontStyle=1;align=center;verticalAlign=top;childLayout=stackLayout;horizontal=1;startSize=26;horizontalStack=0;resizeParent=1;resizeParentMax=0;resizeLast=0;collapsible=1;marginBottom=0;whiteSpace=wrap;html=1;" parent="1" vertex="1">
          <mxGeometry x="570" y="241" width="230" height="140" as="geometry" />
        </mxCell>
        <mxCell id="4fH8sYnN1hW22ZoU_4J2-2" value="&lt;div&gt;+engine: Engine; +pilot: Pilot;&amp;nbsp;&lt;/div&gt;&lt;div&gt;+software: Sowtware&lt;/div&gt;" style="text;strokeColor=none;fillColor=none;align=left;verticalAlign=top;spacingLeft=4;spacingRight=4;overflow=hidden;rotatable=0;points=[[0,0.5],[1,0.5]];portConstraint=eastwest;whiteSpace=wrap;html=1;" parent="4fH8sYnN1hW22ZoU_4J2-1" vertex="1">
          <mxGeometry y="26" width="230" height="44" as="geometry" />
        </mxCell>
        <mxCell id="4fH8sYnN1hW22ZoU_4J2-3" value="" style="line;strokeWidth=1;fillColor=none;align=left;verticalAlign=middle;spacingTop=-1;spacingLeft=3;spacingRight=3;rotatable=0;labelPosition=right;points=[];portConstraint=eastwest;strokeColor=inherit;" parent="4fH8sYnN1hW22ZoU_4J2-1" vertex="1">
          <mxGeometry y="70" width="230" height="10" as="geometry" />
        </mxCell>
        <mxCell id="4fH8sYnN1hW22ZoU_4J2-4" value="+takeOff(): void; +sendHelp(String phone): void; +land(): void; +balance(): void;" style="text;strokeColor=none;fillColor=none;align=left;verticalAlign=top;spacingLeft=4;spacingRight=4;overflow=hidden;rotatable=0;points=[[0,0.5],[1,0.5]];portConstraint=eastwest;whiteSpace=wrap;html=1;" parent="4fH8sYnN1hW22ZoU_4J2-1" vertex="1">
          <mxGeometry y="80" width="230" height="60" as="geometry" />
        </mxCell>
        <mxCell id="4fH8sYnN1hW22ZoU_4J2-7" value="Person" style="html=1;whiteSpace=wrap;" parent="1" vertex="1">
          <mxGeometry x="330" y="130" width="110" height="50" as="geometry" />
        </mxCell>
        <mxCell id="4fH8sYnN1hW22ZoU_4J2-8" value="Pilot" style="swimlane;fontStyle=1;align=center;verticalAlign=top;childLayout=stackLayout;horizontal=1;startSize=26;horizontalStack=0;resizeParent=1;resizeParentMax=0;resizeLast=0;collapsible=1;marginBottom=0;whiteSpace=wrap;html=1;" parent="1" vertex="1">
          <mxGeometry x="305" y="250" width="160" height="130" as="geometry" />
        </mxCell>
        <mxCell id="4fH8sYnN1hW22ZoU_4J2-9" value="&lt;div&gt;+ degree: String;&amp;nbsp;&lt;/div&gt;&lt;div&gt;+ knowledge Knowledge[];&lt;/div&gt;&lt;div&gt;+resume: File;&lt;/div&gt;" style="text;strokeColor=none;fillColor=none;align=left;verticalAlign=top;spacingLeft=4;spacingRight=4;overflow=hidden;rotatable=0;points=[[0,0.5],[1,0.5]];portConstraint=eastwest;whiteSpace=wrap;html=1;" parent="4fH8sYnN1hW22ZoU_4J2-8" vertex="1">
          <mxGeometry y="26" width="160" height="54" as="geometry" />
        </mxCell>
        <mxCell id="4fH8sYnN1hW22ZoU_4J2-10" value="" style="line;strokeWidth=1;fillColor=none;align=left;verticalAlign=middle;spacingTop=-1;spacingLeft=3;spacingRight=3;rotatable=0;labelPosition=right;points=[];portConstraint=eastwest;strokeColor=inherit;" parent="4fH8sYnN1hW22ZoU_4J2-8" vertex="1">
          <mxGeometry y="80" width="160" height="8" as="geometry" />
        </mxCell>
        <mxCell id="4fH8sYnN1hW22ZoU_4J2-11" value="&lt;div&gt;+ repair(Plane plane): void;&lt;/div&gt;&lt;div&gt;+ control(Plane plane): void;&lt;/div&gt;" style="text;strokeColor=none;fillColor=none;align=left;verticalAlign=top;spacingLeft=4;spacingRight=4;overflow=hidden;rotatable=0;points=[[0,0.5],[1,0.5]];portConstraint=eastwest;whiteSpace=wrap;html=1;" parent="4fH8sYnN1hW22ZoU_4J2-8" vertex="1">
          <mxGeometry y="88" width="160" height="42" as="geometry" />
        </mxCell>
        <mxCell id="4fH8sYnN1hW22ZoU_4J2-12" value="Software" style="swimlane;fontStyle=1;align=center;verticalAlign=top;childLayout=stackLayout;horizontal=1;startSize=26;horizontalStack=0;resizeParent=1;resizeParentMax=0;resizeLast=0;collapsible=1;marginBottom=0;whiteSpace=wrap;html=1;" parent="1" vertex="1">
          <mxGeometry x="605" y="450" width="160" height="150" as="geometry" />
        </mxCell>
        <mxCell id="4fH8sYnN1hW22ZoU_4J2-13" value="&lt;div&gt;+ developers: ArrayList&lt;/div&gt;&lt;div&gt;+ documentation: File&lt;/div&gt;&lt;div&gt;+ year: int&lt;/div&gt;" style="text;strokeColor=none;fillColor=none;align=left;verticalAlign=top;spacingLeft=4;spacingRight=4;overflow=hidden;rotatable=0;points=[[0,0.5],[1,0.5]];portConstraint=eastwest;whiteSpace=wrap;html=1;" parent="4fH8sYnN1hW22ZoU_4J2-12" vertex="1">
          <mxGeometry y="26" width="160" height="54" as="geometry" />
        </mxCell>
        <mxCell id="4fH8sYnN1hW22ZoU_4J2-14" value="" style="line;strokeWidth=1;fillColor=none;align=left;verticalAlign=middle;spacingTop=-1;spacingLeft=3;spacingRight=3;rotatable=0;labelPosition=right;points=[];portConstraint=eastwest;strokeColor=inherit;" parent="4fH8sYnN1hW22ZoU_4J2-12" vertex="1">
          <mxGeometry y="80" width="160" height="8" as="geometry" />
        </mxCell>
        <mxCell id="4fH8sYnN1hW22ZoU_4J2-15" value="&lt;div&gt;+ getUpdates(): void;&lt;/div&gt;&lt;div&gt;+ update(): void;&lt;/div&gt;&lt;div&gt;+ restart(): void;&lt;/div&gt;" style="text;strokeColor=none;fillColor=none;align=left;verticalAlign=top;spacingLeft=4;spacingRight=4;overflow=hidden;rotatable=0;points=[[0,0.5],[1,0.5]];portConstraint=eastwest;whiteSpace=wrap;html=1;" parent="4fH8sYnN1hW22ZoU_4J2-12" vertex="1">
          <mxGeometry y="88" width="160" height="62" as="geometry" />
        </mxCell>
        <mxCell id="4fH8sYnN1hW22ZoU_4J2-16" value="&lt;div&gt;Engine&lt;/div&gt;" style="swimlane;fontStyle=1;align=center;verticalAlign=top;childLayout=stackLayout;horizontal=1;startSize=26;horizontalStack=0;resizeParent=1;resizeParentMax=0;resizeLast=0;collapsible=1;marginBottom=0;whiteSpace=wrap;html=1;" parent="1" vertex="1">
          <mxGeometry x="880" y="250" width="160" height="150" as="geometry" />
        </mxCell>
        <mxCell id="4fH8sYnN1hW22ZoU_4J2-17" value="&lt;div&gt;+ state: String; + year: int;&lt;/div&gt;&lt;div&gt;+ engineers: ArrayList; +model: String;&amp;nbsp;&lt;/div&gt;&lt;div&gt;+ factory: String&lt;/div&gt;" style="text;strokeColor=none;fillColor=none;align=left;verticalAlign=top;spacingLeft=4;spacingRight=4;overflow=hidden;rotatable=0;points=[[0,0.5],[1,0.5]];portConstraint=eastwest;whiteSpace=wrap;html=1;" parent="4fH8sYnN1hW22ZoU_4J2-16" vertex="1">
          <mxGeometry y="26" width="160" height="64" as="geometry" />
        </mxCell>
        <mxCell id="4fH8sYnN1hW22ZoU_4J2-18" value="" style="line;strokeWidth=1;fillColor=none;align=left;verticalAlign=middle;spacingTop=-1;spacingLeft=3;spacingRight=3;rotatable=0;labelPosition=right;points=[];portConstraint=eastwest;strokeColor=inherit;" parent="4fH8sYnN1hW22ZoU_4J2-16" vertex="1">
          <mxGeometry y="90" width="160" height="8" as="geometry" />
        </mxCell>
        <mxCell id="4fH8sYnN1hW22ZoU_4J2-19" value="&lt;div&gt;+getState(): String;&amp;nbsp;&lt;/div&gt;&lt;div&gt;+restart(): void;&lt;/div&gt;&lt;div&gt;+fillBack(Fuel fuel): void;&lt;/div&gt;" style="text;strokeColor=none;fillColor=none;align=left;verticalAlign=top;spacingLeft=4;spacingRight=4;overflow=hidden;rotatable=0;points=[[0,0.5],[1,0.5]];portConstraint=eastwest;whiteSpace=wrap;html=1;" parent="4fH8sYnN1hW22ZoU_4J2-16" vertex="1">
          <mxGeometry y="98" width="160" height="52" as="geometry" />
        </mxCell>
        <mxCell id="WbabYULbAm_y0dvY9OQX-1" value="Extends" style="endArrow=block;endSize=16;endFill=0;html=1;rounded=0;exitX=0.5;exitY=0;exitDx=0;exitDy=0;entryX=0.5;entryY=1;entryDx=0;entryDy=0;" edge="1" parent="1" source="4fH8sYnN1hW22ZoU_4J2-8" target="4fH8sYnN1hW22ZoU_4J2-7">
          <mxGeometry width="160" relative="1" as="geometry">
            <mxPoint x="650" y="400" as="sourcePoint" />
            <mxPoint x="810" y="400" as="targetPoint" />
          </mxGeometry>
        </mxCell>
        <mxCell id="WbabYULbAm_y0dvY9OQX-2" value="" style="endArrow=diamondThin;endFill=0;endSize=24;html=1;rounded=0;exitX=0.994;exitY=0.241;exitDx=0;exitDy=0;exitPerimeter=0;entryX=0;entryY=0.5;entryDx=0;entryDy=0;" edge="1" parent="1" source="4fH8sYnN1hW22ZoU_4J2-9" target="4fH8sYnN1hW22ZoU_4J2-2">
          <mxGeometry width="160" relative="1" as="geometry">
            <mxPoint x="650" y="400" as="sourcePoint" />
            <mxPoint x="520" y="340" as="targetPoint" />
          </mxGeometry>
        </mxCell>
        <mxCell id="WbabYULbAm_y0dvY9OQX-3" value="" style="endArrow=diamondThin;endFill=0;endSize=24;html=1;rounded=0;exitX=0.5;exitY=0;exitDx=0;exitDy=0;entryX=0.5;entryY=1;entryDx=0;entryDy=0;" edge="1" parent="1" source="4fH8sYnN1hW22ZoU_4J2-12" target="4fH8sYnN1hW22ZoU_4J2-1">
          <mxGeometry width="160" relative="1" as="geometry">
            <mxPoint x="435" y="390" as="sourcePoint" />
            <mxPoint x="760" y="420" as="targetPoint" />
          </mxGeometry>
        </mxCell>
        <mxCell id="WbabYULbAm_y0dvY9OQX-5" value="" style="endArrow=diamondThin;endFill=1;endSize=24;html=1;rounded=0;entryX=1;entryY=0.5;entryDx=0;entryDy=0;exitX=0;exitY=0.203;exitDx=0;exitDy=0;exitPerimeter=0;" edge="1" parent="1" source="4fH8sYnN1hW22ZoU_4J2-17" target="4fH8sYnN1hW22ZoU_4J2-2">
          <mxGeometry width="160" relative="1" as="geometry">
            <mxPoint x="802" y="308" as="sourcePoint" />
            <mxPoint x="940" y="190" as="targetPoint" />
          </mxGeometry>
        </mxCell>
      </root>
    </mxGraphModel>
  </diagram>
</mxfile>
